<?xml version="1.0" encoding="utf-8"?>
<!DOCTYPE svg PUBLIC "-//W3C//DTD SVG 1.1//EN" "http://www.w3.org/Graphics/SVG/1.1/DTD/svg11.dtd">
<svg version="1.1" xmlns="http://www.w3.org/2000/svg" width="1061.5" height="256" viewBox="0 0 1061.5 256">
<g transform="scale(0.5,0.5)">
<g>
<rect fill="#89bcfa" width="2123" height="512" />
</g>
<g transform="translate(0,0)">
<g transform="scale(1,-1) translate(0,-409)">
<path stroke="none" fill="#ffffff" d="M14 96Q23 92 24 90L28 81Q42 63 57 47T90 24T123 15T141 11T147 10L152 11L158 9Q161 9 162 10V9Q163 7 164 8L168 11Q181 14 179 17L175 23Q166 25 162 29T160 35L164 41Q179 44 188 48T203 60T211 77T210 94T203 108T198 115L181 127Q177 131 176 132H172Q171 132 168 135L152 139Q151 139 147 142L120 149Q117 149 106 156L88 166Q73 178 68 189T61 203T59 206V210Q57 215 57 218T56 229T57 245T57 254Q57 257 61 267T68 280L82 293Q83 295 83 295T88 298L106 308Q114 312 131 313L157 314Q168 314 173 314Q176 313 191 308T212 301L227 289L232 287Q230 285 230 285T233 281T239 276L243 268L244 266L249 255Q246 250 245 250L240 248L241 245Q233 245 227 251T221 258L218 254H216L213 250L212 254H211L204 250Q197 251 194 252T183 259T168 267T151 270T138 271Q128 270 121 266T108 261T102 256T101 253T99 254T93 245T89 234L92 230Q92 229 92 225T95 216L105 205Q108 199 109 199L117 196Q117 195 121 193L163 179L168 176L192 169L211 160Q224 153 227 151L237 144Q238 140 240 140L245 138L254 125L258 122L263 110L266 105Q269 98 267 90T267 82Q267 81 265 76T264 66L262 64L263 62L260 59L262 58Q259 56 259 55L255 44L247 34L243 28L232 18Q214 12 205 7T192 1Q190 0 186 1L157 0Q154 -1 152 0Q144 0 127 3T104 10L84 21L62 31Q53 35 40 50T28 73V74L24 82L23 81Q23 81 23 81T18 85T14 93V96Z" />
</g>
</g>
<g transform="translate(281,0)">
<g transform="scale(1,-1) translate(0,-409)">
<path stroke="none" fill="#ffffff" d="M15 86L12 87Q14 97 15 103L14 142L17 154Q15 157 15 159L18 174L17 182Q16 182 17 184L19 207Q19 209 19 223T21 234L22 232Q22 237 24 238H30L40 242L45 240L55 238L59 233Q61 232 62 232L63 228L72 221L73 215Q86 226 94 231T123 239T161 210L170 194Q181 213 190 220L210 233Q217 238 219 238T227 239H238Q251 238 258 235T278 220T295 172Q296 162 296 155V147H299L296 146L295 117H297Q294 110 295 110L294 83Q293 64 292 60L288 45Q284 42 283 42H277H273L268 36L266 42L265 35Q256 37 257 40V42L250 45Q249 40 249 36T251 27T256 19T265 16T271 15T285 19T299 23T314 34L332 49L330 43L312 27Q299 8 291 5L273 1L270 0L259 7H255Q251 7 249 8T242 21T238 34L236 35L237 98L239 183Q239 193 238 195L225 213Q212 207 207 203T193 185T185 164L184 145L183 137L181 136L178 104L175 60Q177 58 178 58L175 51L178 41L177 36L178 29L173 24V20Q172 14 168 15Q160 15 164 18L165 19L157 18L155 12Q153 13 153 14T151 19T149 23T147 23L140 6Q138 5 134 7T125 15T121 24T121 29L127 116L129 189L126 208Q126 213 125 214Q124 214 122 214L110 217Q107 217 100 215T92 211L88 206L76 196Q71 190 71 177T71 164L72 83Q68 75 69 73L70 69Q67 65 67 64L69 45L66 41L71 39Q66 33 67 31L68 27L65 24Q65 22 65 21T57 10L35 4Q34 9 33 10L29 11Q27 9 27 9T23 14L14 24Q12 27 12 43V59L15 86Z" />
</g>
</g>
<g transform="translate(622,0)">
<g transform="scale(1,-1) translate(0,-409)">
<path stroke="none" fill="#ffffff" d="M193 194Q198 198 200 202L202 210Q204 213 214 215Q226 216 240 212T253 204L251 199H247L255 198Q253 196 253 195L258 177Q257 175 254 174L250 172L258 174Q252 170 252 167V154L249 153L250 148L247 144V143V142L244 141Q245 139 246 139L242 132L243 129Q242 127 240 128H238H241Q236 118 236 114L234 98L230 90L227 82L224 78Q222 76 221 46L219 25Q219 22 220 17T226 7T242 5Q274 8 289 37L303 62H306Q303 57 304 55L306 45L302 37L300 31L304 33L285 9L283 8V10L281 9V6L275 7L265 1Q263 0 262 0T253 -1T242 -3T231 -1T222 1L208 13L196 26L200 41L194 39L190 31L178 37L181 33L176 36Q172 27 162 24V21Q161 19 157 19L133 6Q132 5 114 0T94 -3L87 -1L82 3Q83 1 83 1T81 0T79 0Q69 0 60 3T50 8L27 37Q23 47 19 58T14 78Q13 81 13 88T14 99L12 107L13 116L12 125Q12 126 13 129L17 144Q18 148 27 166T58 205T95 229T115 233H151Q155 233 157 233Q161 232 167 227T179 218T186 213L187 196Q190 194 191 193T192 189L193 194V194ZM84 55Q82 50 81 51L79 52Q85 37 92 32T112 27Q118 27 130 32T148 43L158 55Q162 59 162 60T163 65V68Q162 70 161 74T159 83T164 105L180 159L183 170Q181 166 180 166L161 174L152 175Q147 178 143 179T129 179Q101 173 91 160T74 129T69 98L72 74Q74 57 78 57L84 55V55Z" />
</g>
</g>
<g transform="translate(936,0)">
<g transform="scale(1,-1) translate(0,-409)">
<path stroke="none" fill="#ffffff" d="M11 248L14 253Q29 250 35 250T50 241L52 243L50 242Q50 242 50 242T54 240L58 236L57 234L72 230Q72 224 74 222L87 207V205L96 189V183L101 167L102 165Q109 172 120 182T147 198T180 204T204 199L210 193V190H207Q206 189 206 188Q204 184 194 190L192 189L184 188L182 189Q163 184 160 182L139 170Q135 163 132 162L128 160L120 139L116 134Q115 132 115 126T111 110T109 98T112 91L109 87L110 78L108 73L107 61Q107 58 107 57L105 32L106 16Q105 14 106 11L98 4L96 0Q94 -1 92 -1Q90 -2 85 1T80 3L75 0Q66 -1 65 -3T64 -9V-12L61 -10L58 -12Q54 -9 53 -9L50 -10Q44 -1 43 4L48 58L49 109L48 178Q48 192 48 194L32 224L28 229Q17 233 20 235L23 237Q18 240 19 241L22 245L11 248Z" />
</g>
</g>
<g transform="translate(1158,0)">
<g transform="scale(1,-1) translate(0,-409)">
<path stroke="none" fill="#ffffff" d="M63 230L68 294L67 301Q73 300 76 300L97 301Q100 300 103 300T114 294T123 288T126 279L128 271L123 259Q121 254 122 254L121 231Q133 230 139 230H157Q161 229 163 229L168 226L182 225L187 221L190 218L188 215L183 217L186 213L183 206L188 210L190 207Q187 202 185 201L173 199L170 196Q169 195 168 195L161 197Q152 198 153 199V200L151 199Q147 198 146 198L123 199L121 198L120 188L119 178H115L118 175V163Q118 152 118 151L115 136Q116 132 116 131T117 128T115 127H114L118 123L114 124Q115 122 115 121T115 114V105L113 94L114 91L113 83L111 78Q113 75 113 74T113 60L112 44Q111 41 107 34T101 31L88 41Q80 40 79 38T77 30T79 22T93 16T110 12L117 13Q131 13 139 15T159 27T178 45L211 90L206 74Q206 73 206 72T202 65L195 52L190 47Q188 45 183 32T156 9T119 -1Q115 -1 112 0L99 4L78 10Q66 14 62 22T56 32T57 88L59 170L61 198L29 199Q24 199 23 201L20 205L17 208Q14 210 14 215V221Q14 224 14 226T28 230L48 229L63 230V230Z" />
</g>
</g>
<g transform="translate(1377,0)">
<g transform="scale(1,-1) translate(0,-409)">
<path stroke="none" fill="#ffffff" d="M17 250L19 310L17 314L25 316L28 318Q33 321 35 321T44 319T63 316T78 314T80 308T81 301L80 278Q79 277 80 277Q80 272 80 267T82 259L83 227L84 222L81 212L82 209Q82 199 79 185T81 171V171L80 160L82 153L79 150L80 140Q78 138 78 137L79 126L77 121L76 41Q68 49 68 48L60 36L53 39Q51 39 49 39T46 39L40 41Q37 40 36 36T43 25T61 14T85 11L130 12Q155 11 164 15T181 28L194 42L202 35Q198 30 198 28L197 16Q195 13 194 13T191 12L174 3L163 1L161 0L79 1Q61 1 46 8T23 24T14 62T14 93L17 223V250Z" />
</g>
</g>
<g transform="translate(1590,0)">
<g transform="scale(1,-1) translate(0,-409)">
<path stroke="none" fill="#ffffff" d="M72 224Q77 221 78 219L79 212L81 206L79 187L82 183L79 174L80 166L79 148L82 145L78 137Q77 136 78 118L76 101L77 89L76 67L78 53Q77 49 77 48L78 33L77 22L78 16L70 8L66 -1L62 -2Q52 7 50 6L39 1V-2Q30 -7 32 -9L33 -11Q31 -11 30 -10H24L22 -6L16 -5Q14 -5 14 0V7L12 20Q12 21 12 26L15 112V178Q15 201 17 206T19 215T21 220L26 221Q26 221 28 223T37 227Q38 227 39 227L48 225L55 228L58 226L72 224V224ZM19 291Q23 295 27 297T32 301L34 304Q34 304 39 304L50 306Q50 305 56 303L67 300Q77 296 79 289V277L81 271Q80 270 77 266L72 258L65 255Q52 246 49 248L37 251Q33 256 24 263T18 273L20 275L17 286L19 291V291Z" />
</g>
</g>
<g transform="translate(1691,0)">
<g transform="scale(1,-1) translate(0,-409)">
<path stroke="none" fill="#ffffff" d="M13 207Q14 208 15 209T42 210L75 215H79L97 263Q101 275 108 286T122 304T130 313L141 312L144 314L146 311Q152 312 155 312T162 311T165 304L164 297L163 294Q164 292 165 292L164 286L167 278L164 274L160 273L155 265Q153 259 152 257L145 249L143 240L135 225Q132 221 132 219T137 215L179 214Q183 213 189 209T194 203L191 199H194L195 194Q189 192 182 187H177L173 185H165L149 183V186Q141 182 138 183L133 184L127 171Q123 149 123 137T122 109V91Q121 88 122 88L124 66Q122 65 121 64T121 63V61Q122 61 125 60V59H121Q124 55 125 53T126 45V37L122 8Q124 6 125 5L122 -9L121 -15Q120 -33 116 -38T108 -44T104 -41L102 -33Q99 -28 98 -28L96 -29L91 -30V-34Q84 -37 84 -38L81 -43Q70 -56 66 -61L55 -74Q45 -86 39 -86H36H34Q32 -84 31 -82T51 -59Q57 -53 62 -41T70 -22L74 -5Q76 2 76 5L67 60Q65 71 65 83T66 111L69 143L72 181Q69 178 69 179L62 183Q54 179 50 178T44 177L32 178Q21 185 21 188L13 207V207Z" />
</g>
</g>
<g transform="translate(1901,0)">
<g transform="scale(1,-1) translate(0,-409)">
<path stroke="none" fill="#ffffff" d="M16 119Q19 133 25 158T51 203T79 229T96 239T129 245Q152 246 158 243T177 231T191 220L201 194Q192 175 183 165T148 149L91 137Q79 134 77 130T73 121T72 109L69 105L68 89L66 78Q65 75 68 68Q71 56 72 56L86 42Q85 42 85 43L78 42L77 43V40L76 35L75 34Q72 29 72 28T75 24T78 20T88 17L103 12Q107 11 117 11T154 22T186 40L198 52L193 46Q195 43 195 42T189 34L181 24L169 14L146 9Q145 6 144 5T140 4L133 5Q129 2 127 2T115 1L95 0Q94 0 94 0Q87 0 72 5T44 20T25 43T17 65L15 82Q13 93 13 96L16 119ZM85 155Q109 162 119 165T138 170T148 174L162 184Q167 192 167 195T168 200Q167 206 164 209T154 213Q142 213 124 203T96 174L85 155V155Z" />
</g>
</g>
</g>
</svg>