<?xml version="1.0" encoding="utf-8"?>
<!DOCTYPE svg PUBLIC "-//W3C//DTD SVG 1.1//EN" "http://www.w3.org/Graphics/SVG/1.1/DTD/svg11.dtd">
<svg version="1.1" xmlns="http://www.w3.org/2000/svg" width="616.359" height="96" viewBox="0 0 616.359 96">
<g transform="scale(0.047,0.047)">
<g>
<rect fill="#89bcfa" width="13149" height="2048" />
</g>
<g transform="translate(0,0)">
<g transform="scale(1,-1) translate(0,-1638)">
<path stroke="none" fill="#ffffff" d="M134 126Q125 204 160 241T252 285Q317 292 362 272T492 206T650 133T784 95T930 87Q1083 91 1155 137T1261 262T1253 415Q1212 482 1024 506L800 533Q689 548 634 563T524 596T421 641T326 704T228 822T173 1010T201 1198Q231 1279 287 1340T401 1436T524 1492T659 1528T837 1544Q931 1544 1045 1532T1231 1499T1373 1447T1492 1382T1591 1282T1615 1168T1548 1104T1454 1090Q1410 1091 1380 1098T1232 1144T1034 1195T867 1203Q709 1197 661 1146T607 1030T637 920Q674 871 793 847L1117 798Q1202 783 1274 762T1426 702T1589 568T1674 295T1561 -28Q1478 -132 1376 -179T1191 -242T1023 -263T883 -266Q786 -265 703 -252T547 -219T420 -177T298 -110T186 1T134 126Z" />
</g>
</g>
<g transform="translate(1803,0)">
<g transform="scale(1,-1) translate(0,-1638)">
<path stroke="none" fill="#ffffff" d="M1730 -233Q1699 -243 1650 -230T1575 -168T1551 -25Q1552 13 1564 208T1579 496T1561 626Q1540 659 1488 684T1370 706Q1309 702 1271 677T1212 614T1197 460T1203 206Q1202 96 1197 28T1179 -100T1138 -202T1054 -244T953 -199Q903 -150 888 -78T865 99T866 348T870 527Q860 588 837 614T774 659T658 679T542 646T491 563T490 417T503 184T487 -73Q474 -147 442 -192T357 -240T254 -189Q213 -146 200 -90T180 84L169 238Q162 353 164 511Q165 656 175 746T206 924T259 1044T363 1091T501 1051T575 992Q589 989 658 1024T820 1057Q881 1055 938 1043T1051 993T1115 953T1130 951Q1141 951 1169 972T1240 1011T1326 1045T1480 1062Q1572 1061 1646 1035T1762 961T1830 853T1865 719T1878 530T1881 346L1869 44Q1865 -119 1824 -168T1730 -233Z" />
</g>
</g>
<g transform="translate(3851,0)">
<g transform="scale(1,-1) translate(0,-1638)">
<path stroke="none" fill="#ffffff" d="M523 -292Q273 -289 167 -183T65 77Q68 193 126 269T249 392T428 490T706 569T893 627T911 704Q904 746 864 777T757 820T632 827Q546 818 503 783T447 709L428 635Q410 591 369 568T262 550T149 620T107 752Q112 836 196 915T400 1022T582 1057T686 1068Q754 1071 826 1066T958 1047T1049 1020T1123 982T1220 903T1283 734T1292 486L1291 289Q1289 150 1295 93Q1301 18 1327 -11T1385 -43Q1386 -44 1435 -39T1495 -48T1497 -98Q1487 -135 1460 -175T1383 -245T1263 -276Q1197 -278 1151 -247L1046 -179Q1024 -177 955 -203T836 -242T730 -266T604 -285T523 -292ZM482 105Q488 79 518 56T604 30Q660 27 732 47T849 89T907 124T926 152T935 173T932 219Q922 303 914 309T881 320Q824 327 758 314T608 271T497 197T482 105Z" />
</g>
</g>
<g transform="translate(5417,0)">
<g transform="scale(1,-1) translate(0,-1638)">
<path stroke="none" fill="#ffffff" d="M389 -263Q337 -262 277 -210T194 -53T163 205T158 521Q161 652 175 799T234 1005T336 1076T450 1051Q472 1035 508 993T570 945T651 985L724 1047Q796 1100 877 1109Q950 1116 1012 1084T1109 979T1109 812Q1090 762 1052 729T950 688T835 714L792 744Q761 758 724 750Q692 742 660 716T608 646T577 517T567 323L572 113Q572 -20 548 -114Q529 -185 488 -225T389 -263Z" />
</g>
</g>
<g transform="translate(6676,0)">
<g transform="scale(1,-1) translate(0,-1638)">
<path stroke="none" fill="#ffffff" d="M785 -257Q636 -256 561 -224T454 -153T401 -24T372 151Q361 263 376 444T390 669Q386 728 371 743T276 770T146 825T107 941Q117 1013 173 1038T294 1075T378 1101T397 1210T416 1355Q437 1407 484 1448T589 1492T711 1429Q772 1362 772 1253T782 1128T806 1100T918 1069T1066 1020T1118 928T1086 832Q1060 805 1014 793L853 762Q804 743 785 713T761 615T754 472T755 293Q757 204 776 173T814 130T912 117T1024 97T1069 53T1097 -32T1082 -146T976 -230T785 -257Z" />
</g>
</g>
<g transform="translate(8001,0)">
<g transform="scale(1,-1) translate(0,-1638)">
<path stroke="none" fill="#ffffff" d="M1566 -34Q1571 -97 1542 -144T1459 -218T1226 -261T860 -273Q756 -272 619 -262T384 -229T218 -138T131 43T106 371T101 763Q102 919 110 1104T146 1363T235 1477T365 1512Q435 1504 478 1457T537 1338T558 1088T563 825Q562 719 555 587T551 399Q555 285 595 236T763 167T989 146Q1084 144 1253 167T1488 141T1566 -34Z" />
</g>
</g>
<g transform="translate(9668,0)">
<g transform="scale(1,-1) translate(0,-1638)">
<path stroke="none" fill="#ffffff" d="M170 1365Q180 1433 228 1485T379 1537T526 1471T571 1327Q570 1279 555 1240T505 1169T397 1125T265 1145T184 1241T170 1365ZM377 -281Q314 -283 269 -228T206 -47T182 232T182 550Q186 680 196 796T232 972T284 1034L334 1010Q367 993 418 1011T480 1028Q502 1020 517 959T544 800T557 569T553 231Q547 56 534 -59T469 -227T377 -281Z" />
</g>
</g>
<g transform="translate(10370,0)">
<g transform="scale(1,-1) translate(0,-1638)">
<path stroke="none" fill="#ffffff" d="M1075 778Q1071 746 1036 700T925 638L812 620Q766 606 748 580T730 494T735 375L753 183Q754 128 735 -37Q720 -168 677 -242T568 -319T433 -211Q395 -151 378 -69T361 152T381 407T383 562Q374 581 365 590T255 623T125 690T95 806Q96 870 120 901T174 947T277 966T372 986T382 1114T397 1306Q417 1365 446 1399T520 1457T623 1492T742 1501Q837 1497 916 1467T1042 1387T1080 1269Q1071 1208 1023 1174T870 1130T745 1096T725 1019Q725 990 735 978T810 963T941 945T1044 883T1075 778Z" />
</g>
</g>
<g transform="translate(11588,0)">
<g transform="scale(1,-1) translate(0,-1638)">
<path stroke="none" fill="#ffffff" d="M1160 256Q1226 260 1269 238T1328 189T1346 92T1292 -60Q1231 -150 1113 -202T787 -254Q680 -254 601 -238T429 -174T282 -78T184 56T131 197T114 310T113 449Q119 548 155 659T289 862T477 991T660 1041T797 1053Q910 1053 1008 1020T1160 955T1277 860T1384 720T1442 574T1426 443Q1398 393 1322 357T1058 311T819 304T617 324Q546 331 509 317T456 268T462 170Q478 124 512 83T601 18T785 -17T959 1Q998 28 1010 74L1021 164Q1033 204 1073 228T1160 256ZM794 773Q765 772 700 750T594 683T556 615Q559 582 621 559T765 532Q890 525 962 551T1043 606T994 692Q949 734 889 753T794 773Z" />
</g>
</g>
</g>
</svg>