<?xml version="1.0" encoding="utf-8"?>
<!DOCTYPE svg PUBLIC "-//W3C//DTD SVG 1.1//EN" "http://www.w3.org/Graphics/SVG/1.1/DTD/svg11.dtd">
<svg version="1.1" xmlns="http://www.w3.org/2000/svg" width="1250.625" height="256" viewBox="0 0 1250.625 256">
<g transform="scale(0.125,0.125)">
<g>
<rect fill="#89bcfa" width="10005" height="2048" />
</g>
<g transform="translate(0,0)">
<g transform="scale(1,-1) translate(0,-1638)">
<path stroke="none" fill="#ffffff" d="M1050 1010Q1080 1000 1119 999T1175 1026T1189 1091Q1184 1139 1165 1173T1101 1246T965 1314T738 1338Q663 1334 568 1311T423 1221T372 1100T388 1006Q407 961 444 935T551 890T693 858L876 827Q995 804 1077 769T1208 683T1280 576T1309 455T1278 312Q1235 218 1160 165T985 80T689 45Q602 43 523 50T349 91T198 176T122 282T102 411T168 544T321 598Q367 594 397 568T432 486T405 407T345 386Q323 386 304 396T280 420L267 454Q255 460 239 448T220 415T220 373Q229 318 280 273T430 214T631 204Q730 206 806 219T938 261T1018 333T1043 437Q1042 495 1020 544T956 626T837 678T623 720T393 768T237 833T140 933T105 1064T118 1181Q137 1239 190 1296T312 1396T475 1462T655 1490Q743 1494 842 1481T1044 1426T1204 1325T1288 1201T1303 1071Q1291 1011 1230 951T1064 903Q994 910 953 955T912 1048T932 1124T998 1158T1064 1130T1084 1067Q1082 1045 1063 1028T1050 1010Z" />
</g>
</g>
<g transform="translate(1426,0)">
<g transform="scale(1,-1) translate(0,-1638)">
<path stroke="none" fill="#ffffff" d="M734 915Q764 942 796 967T875 1010T989 1029Q1061 1029 1133 1002T1253 913T1311 788T1320 636V160Q1320 111 1295 73T1187 41Q1135 44 1115 69T1094 160L1092 677Q1091 740 1061 771T981 807T888 784Q850 759 835 722T820 626V150Q820 115 804 85T714 48T616 72T591 150L589 680Q588 718 559 755T458 798T353 756T319 655V124Q319 89 297 66T216 34T128 59T100 124V904Q100 957 114 990T155 1041T229 1054Q256 1051 281 1035T307 993L309 960Q332 973 355 984T407 1002T492 1012T591 1003T665 967L734 915V915Z" />
</g>
</g>
<g transform="translate(2857,0)">
<g transform="scale(1,-1) translate(0,-1638)">
<path stroke="none" fill="#ffffff" d="M767 232Q739 192 702 152T588 86T449 57Q383 54 298 78T155 170T97 345Q98 439 145 500T248 596T392 663T619 705L723 712Q724 758 722 802T696 881T615 940T494 962Q440 959 396 939T333 893T313 844T317 807T343 789Q352 786 370 792T395 795T380 748T295 699Q245 694 194 724T145 833Q146 876 179 920T267 997T403 1049T555 1071Q624 1072 685 1060T796 1027T885 961T937 860T950 726T950 602L943 446Q941 398 942 346Q942 286 946 259T957 222T980 211Q990 209 1005 217T1030 243T1047 264T1062 264T1065 228L1061 194Q1056 162 1041 137T1000 92T916 66T822 92Q786 122 778 174L767 232V232ZM723 606Q694 603 658 599T555 574T437 512T364 425T338 339T373 257T483 217Q507 217 541 226T611 261T674 328T713 407T723 525T723 606Z" />
</g>
</g>
<g transform="translate(4017,0)">
<g transform="scale(1,-1) translate(0,-1638)">
<path stroke="none" fill="#ffffff" d="M326 943Q344 960 366 977T442 1015T562 1035Q615 1033 672 1014T778 944T826 810Q824 748 795 722T728 694T658 721T635 799Q644 856 681 861L712 868Q696 890 677 909T608 933Q562 937 510 914T407 829T344 728T332 619L328 454V143Q328 96 298 69T205 46Q148 49 127 73T106 133V889Q106 971 125 1010T199 1056T289 1037Q322 1011 322 990L326 943V943Z" />
</g>
</g>
<g transform="translate(4935,0)">
<g transform="scale(1,-1) translate(0,-1638)">
<path stroke="none" fill="#ffffff" d="M590 1059Q621 1041 654 1025T726 1009Q763 1008 787 1021T832 1054T860 1074T870 1067T871 1049Q862 1015 844 976T801 911T720 862T621 846L591 850L590 355Q589 315 599 294T640 261T705 254Q722 256 745 265T791 294T820 356T833 402T865 394T906 338T921 251Q918 183 881 136T777 67T638 46Q567 46 507 66T411 123T362 207T348 369V871Q332 879 315 886T271 897Q229 901 197 889T147 864T124 849T112 845T98 850T105 893Q130 951 137 963T175 1004T247 1049T318 1070L348 1074V1215Q348 1259 355 1280T392 1326T481 1350T565 1313T591 1211L590 1059Z" />
</g>
</g>
<g transform="translate(5960,0)">
<g transform="scale(1,-1) translate(0,-1638)">
<path stroke="none" fill="#ffffff" d="M369 254Q402 275 434 294T516 332T594 355T656 359Q725 355 813 321T929 280T990 274Q1046 274 1098 296T1177 339T1213 365T1231 367T1240 349T1233 312L1213 261Q1192 211 1159 164T1065 80T902 48Q831 51 750 82L636 126Q552 152 460 150Q398 148 361 137T278 105T201 68T154 53Q127 55 115 74T103 123L102 1363Q102 1400 132 1442T230 1488T334 1448T370 1362L369 254Z" />
</g>
</g>
<g transform="translate(7315,0)">
<g transform="scale(1,-1) translate(0,-1638)">
<path stroke="none" fill="#ffffff" d="M185 108V970Q185 998 217 1026T313 1056T402 1025T428 970V108Q428 81 397 52T303 25Q240 26 213 54T185 108ZM298 1482Q332 1482 365 1464T418 1412T437 1340T419 1270Q400 1236 368 1217T298 1199Q260 1199 227 1218T176 1269T158 1341Q158 1378 176 1411T229 1463T298 1482Z" />
</g>
</g>
<g transform="translate(7935,0)">
<g transform="scale(1,-1) translate(0,-1638)">
<path stroke="none" fill="#ffffff" d="M582 788V160Q582 125 571 105T531 67T461 52Q391 54 372 85T353 150V832Q339 835 323 838T275 842Q228 841 200 830T162 810L131 776Q120 768 116 770T109 790T116 843Q125 875 143 910T210 974T316 1002H353V1128Q353 1148 361 1211T381 1311T433 1396T534 1464T647 1486Q739 1489 788 1455T851 1379T865 1297T845 1225T775 1189T701 1216T684 1287Q688 1307 707 1330T748 1352H772Q764 1373 752 1387T704 1399Q666 1396 640 1369T601 1294T586 1199T583 1114L582 965Q600 955 626 943T687 929Q710 927 745 935T805 973T838 1002T852 993T849 965Q835 930 825 906T788 850T722 796T640 781L582 788V788Z" />
</g>
</g>
<g transform="translate(8898,0)">
<g transform="scale(1,-1) translate(0,-1638)">
<path stroke="none" fill="#ffffff" d="M338 514Q344 450 353 397T398 283T491 193T623 158Q692 153 752 166T850 207T896 259L914 306Q908 294 903 290T884 285Q859 283 837 298T813 354T837 417T897 440Q935 439 954 419T984 371T991 292Q987 248 968 207T894 125T754 59T546 38Q429 42 347 80T208 189T125 340T98 531Q98 593 109 660T148 786T230 907T368 1017T558 1065Q616 1065 701 1039T850 945T945 811T975 683Q974 645 953 597T851 514T712 480Q655 480 602 503L530 538Q498 551 475 553T433 556Q378 553 362 536L338 514V514ZM337 602Q373 638 397 654T455 682T519 693Q550 691 575 680T651 641T735 615Q750 615 758 621T768 637T770 658Q768 701 760 730T731 808T665 891T567 927Q525 928 483 907T404 836T358 700T337 602Z" />
</g>
</g>
</g>
</svg>