<?xml version="1.0" encoding="utf-8"?>
<!DOCTYPE svg PUBLIC "-//W3C//DTD SVG 1.1//EN" "http://www.w3.org/Graphics/SVG/1.1/DTD/svg11.dtd">
<svg version="1.1" xmlns="http://www.w3.org/2000/svg" width="1612.625" height="256" viewBox="0 0 1612.625 256">
<g transform="scale(0.125,0.125)">
<g>
<rect fill="#89bcfa" width="12901" height="2048" />
</g>
<g transform="translate(0,0)">
<g transform="scale(1,-1) translate(0,-1638)">
<path stroke="none" fill="#ffffff" d="M102 96Q104 173 172 253T337 330Q369 328 403 314L548 208Q597 171 664 145T800 107T994 96T1176 156T1232 285Q1231 343 1187 397T956 474T709 507T596 531T495 565T396 611T305 674T213 793T162 991T190 1185Q220 1268 276 1329T384 1422T506 1480T652 1522T835 1541Q926 1542 1029 1533T1211 1504T1365 1455T1497 1395T1584 1338T1632 1282T1651 1209T1632 1115Q1609 1064 1561 1022T1462 977Q1420 975 1317 1029T1170 1103T1046 1134T851 1142T689 1087T642 982Q643 942 676 901T826 838L1149 791Q1228 776 1302 753T1452 691T1610 552T1693 267T1578 -62Q1494 -167 1389 -215T1200 -280T1029 -301T886 -304Q783 -303 703 -291T544 -256T412 -213T308 -157T203 -76T125 18T102 96ZM535 1132Q545 1131 566 1147T610 1203T656 1272T694 1307T727 1304Q738 1298 747 1288L776 1238Q791 1213 806 1214Q815 1214 823 1222T846 1251T879 1290T912 1311Q924 1313 940 1307T969 1288T1004 1250T1044 1223Q1056 1222 1074 1231T1121 1265T1162 1291T1201 1269Q1216 1253 1234 1227L1261 1186Q1272 1168 1286 1152T1313 1136T1350 1169Q1374 1204 1394 1225T1429 1249T1467 1237Q1490 1220 1502 1200T1522 1162T1538 1123T1554 1102T1578 1119Q1591 1135 1599 1154T1608 1204Q1606 1241 1590 1264T1532 1318T1446 1372T1329 1421T1184 1463T1033 1486T867 1493Q749 1491 670 1476T523 1437T407 1385T323 1315T262 1234T227 1158T209 1085T204 1018Q204 1000 209 966T229 931T268 966Q275 977 295 1014L336 1088Q364 1142 387 1165T435 1187Q447 1186 486 1159T535 1132Z" />
</g>
</g>
<g transform="translate(1812,0)">
<g transform="scale(1,-1) translate(0,-1638)">
<path stroke="none" fill="#ffffff" d="M104 -46V872Q104 929 127 961T184 1011T281 1031Q315 1031 342 1026T418 1000T489 981Q501 981 569 1012T726 1044Q782 1044 835 1034T944 996T1005 966T1017 964Q1027 963 1053 979T1135 1014L1171 1026Q1260 1054 1361 1050Q1451 1045 1530 1017T1653 948T1720 840T1744 710V-48Q1744 -188 1715 -225T1618 -273Q1568 -282 1508 -268T1425 -229T1389 -161T1376 -48L1373 528Q1372 593 1347 618T1295 652T1228 660T1149 620T1111 435L1113 -135Q1113 -193 1066 -243T890 -280Q806 -272 772 -235T738 -117L737 468Q736 538 721 572T682 631T602 657T515 622T484 491L482 -110Q481 -194 448 -231T371 -275T303 -281Q190 -281 152 -238T109 -159T104 -46ZM610 991Q514 938 482 944T417 964T360 986T278 994Q241 994 214 986T170 954T148 903T142 829V768Q140 733 143 703T161 671T197 700Q202 708 215 734T235 776T256 797T284 791Q289 786 295 769T311 734T331 709T365 715Q385 726 398 773T421 838T445 859T473 855Q475 853 493 818T527 781T583 808T656 839Q673 839 683 833T706 806T732 773T764 764Q776 765 799 782T836 809T862 819Q874 817 887 802T921 717T970 650Q984 652 1003 677L1063 800Q1100 847 1149 845Q1165 844 1182 836T1218 816T1248 796T1267 782T1291 776Q1317 774 1346 802T1385 831Q1396 830 1415 812T1455 759T1491 722T1523 742L1547 789Q1559 806 1570 805Q1576 803 1594 773T1622 721T1648 677T1681 659T1695 727Q1693 748 1685 791T1666 859T1623 913T1551 964T1459 997T1337 1007Q1272 1005 1212 992T1098 947T1027 913Q1013 912 950 947T826 993T720 1004Q694 1003 652 997L610 991V991Z" />
</g>
</g>
<g transform="translate(3680,0)">
<g transform="scale(1,-1) translate(0,-1638)">
<path stroke="none" fill="#ffffff" d="M556 -296Q306 -294 204 -192T102 54T180 304Q217 354 281 403T452 498T608 556L890 622Q915 635 915 645T897 675T825 699Q728 704 634 665T516 611L444 561Q398 534 343 531Q278 526 232 551T157 618T131 717Q134 780 189 842T313 943T464 1002T597 1030T717 1040Q797 1043 860 1038T982 1020T1103 984T1215 915T1288 804T1314 648T1316 463T1313 360L1316 275L1321 82Q1327 16 1336 -15T1360 -89T1373 -161Q1371 -202 1348 -229T1263 -276T1146 -290Q1074 -284 1018 -240T943 -199Q936 -201 905 -216T819 -248T728 -274T627 -290T556 -296ZM530 105Q530 72 556 45T651 4T870 76Q904 96 915 108T934 135T943 164L939 205Q931 292 922 299T890 308Q875 308 851 304T719 277T570 197T530 105ZM432 710Q437 709 449 722T480 763T514 807T544 828T585 820Q594 814 617 795T655 778Q668 780 682 806T707 840T739 849Q757 848 768 840T797 819T827 805Q838 804 852 813L895 847Q917 862 935 859Q957 854 976 809T1011 739T1043 717Q1053 718 1062 731T1086 768T1114 794T1144 785Q1153 777 1166 759T1198 707T1233 676T1254 704T1245 774Q1226 824 1217 840T1176 883T1109 927T1024 959T922 983T808 993T694 994Q633 990 563 979T449 952T357 914T282 868T231 816T195 762T182 711T202 649T246 622Q256 625 264 642T281 694T310 755T357 775Q366 772 395 741T432 710Z" />
</g>
</g>
<g transform="translate(5176,0)">
<g transform="scale(1,-1) translate(0,-1638)">
<path stroke="none" fill="#ffffff" d="M103 -63L105 844Q105 903 111 938T136 998T200 1034T284 1048Q321 1049 372 1043T452 1019T490 970L500 936Q509 918 522 916T561 936Q584 955 630 983T705 1023T795 1051T894 1072Q942 1077 993 1070T1073 1038T1111 962T1117 859Q1109 765 1076 732T990 686L848 672Q775 663 714 631T607 550T543 449T523 315V-24Q523 -107 521 -142T493 -209T427 -253T318 -266Q256 -268 219 -258T155 -220T116 -146T103 -63ZM476 859Q474 860 463 899T442 956T413 986T355 1001Q318 1003 277 1000T213 990T173 964T150 916T145 843Q144 790 145 744T144 663T149 627T169 634Q179 642 185 670T197 712T216 728T244 689Q250 670 258 634L273 566Q282 522 289 523Q297 523 303 546T320 625T330 704T338 740T354 754T369 722T380 688T398 716T423 753T466 744Q480 735 493 712T514 680T531 669T557 697Q567 717 578 775T608 832Q624 831 648 791L670 751Q679 737 687 736T706 751Q715 764 719 790T731 830T757 845L797 832Q809 834 817 852L827 893Q836 912 849 912T875 899L898 862Q914 839 925 842Q933 843 940 867T958 907T979 923Q989 922 995 906T1006 876L1016 832Q1023 803 1035 800T1061 817T1074 879Q1072 930 1069 952T1049 994T988 1025T881 1028Q828 1020 775 1001T680 960T599 908T525 864T476 859Z" />
</g>
</g>
<g transform="translate(6402,0)">
<g transform="scale(1,-1) translate(0,-1638)">
<path stroke="none" fill="#ffffff" d="M763 627L762 190Q761 161 769 144T799 116T841 104L933 102Q985 100 1016 83T1064 37T1086 -65T1069 -197Q1055 -230 1033 -249T956 -280T815 -291H659Q581 -291 532 -272T446 -220T393 -152T372 -75T368 68V605Q368 637 348 654T302 672H207Q172 672 148 687T113 738T101 828T107 916Q118 962 147 988T226 1018L293 1016Q334 1015 350 1032Q360 1042 362 1056T365 1127V1243Q365 1311 390 1344T464 1389T566 1402Q630 1402 674 1386T740 1334T763 1244V1095Q763 1056 766 1042T782 1017T844 1006H945Q1002 1006 1027 1002T1072 977T1101 907T1109 813Q1105 728 1077 706T1024 679T934 673L817 672Q789 671 776 660T763 627ZM779 970Q759 970 747 976T729 1021Q723 1049 724 1108T725 1220Q724 1257 715 1286T676 1333T600 1357Q553 1361 522 1356T464 1339T424 1311T408 1257Q405 1237 406 1185T408 1088Q407 1051 403 1028T382 990T340 975L243 976Q211 976 191 966T158 936T143 895T137 847T144 795T176 772Q190 773 205 806L219 840Q230 865 238 865T259 837L279 776Q293 741 307 742Q323 742 333 769L344 815Q359 840 367 837T388 802T428 773Q441 774 460 805T485 836T505 793Q533 701 550 670T580 641Q587 642 601 678L627 745L645 823Q655 864 667 864Q676 863 686 849T714 799T745 759T792 796Q814 825 830 849T857 873T883 859Q894 844 898 807T910 759T927 748T951 778Q960 798 969 825T989 855T1018 837L1043 794Q1052 782 1059 782T1068 804T1069 842Q1068 873 1065 894T1050 932T1013 958T944 967L779 970Z" />
</g>
</g>
<g transform="translate(7617,0)">
<g transform="scale(1,-1) translate(0,-1638)">
<path stroke="none" fill="#ffffff" d="M1362 -234L383 -232Q308 -232 254 -210T169 -148T120 -50T102 47V1273Q102 1363 105 1392T128 1454T191 1511T340 1534Q411 1532 464 1517T545 1465T575 1377T579 1273L581 383Q581 306 584 282T598 242T642 214T706 202H1356Q1495 202 1529 188T1590 112T1610 -38Q1604 -115 1579 -156T1510 -216T1362 -234ZM540 1298Q540 1356 531 1388T505 1441T461 1472T387 1487T285 1487Q233 1482 202 1464T157 1413T141 1320L140 1203Q139 1171 140 1143T152 1115Q158 1115 166 1124T186 1159T207 1200T233 1216T267 1175Q275 1154 285 1117L303 1047Q314 1000 323 1001Q332 1001 340 1025T364 1114T381 1202T391 1238T407 1253T421 1215T435 1175Q440 1173 457 1207T482 1240Q488 1238 494 1211T503 1173L506 1149Q514 1104 524 1104T540 1146Q542 1163 540 1191T539 1245L540 1298V1298Z" />
</g>
</g>
<g transform="translate(9336,0)">
<g transform="scale(1,-1) translate(0,-1638)">
<path stroke="none" fill="#ffffff" d="M171 1339Q170 1416 187 1458T249 1518T371 1535Q443 1533 479 1522T533 1492T561 1446T570 1317Q567 1241 559 1208T531 1157T483 1126T357 1114Q304 1114 270 1121T213 1150T181 1212T171 1339ZM412 1500Q379 1502 334 1499T259 1479T217 1435T204 1372T203 1301T204 1254T213 1239T231 1245Q237 1249 242 1257T259 1286T280 1308T307 1286Q314 1274 324 1246T340 1206T353 1192T373 1216Q376 1222 386 1255T398 1303T407 1327T424 1336Q433 1335 439 1302T450 1268Q455 1267 471 1300T491 1331Q493 1329 496 1298L499 1268Q499 1247 503 1237T515 1227T530 1240Q534 1250 533 1266T532 1319T533 1369Q532 1423 518 1447T476 1484T412 1500ZM179 -47V815Q179 906 188 932T218 983T276 1022T375 1038Q429 1038 462 1027T524 989T567 926T582 838V-99Q582 -134 568 -176T537 -235T472 -264T383 -276Q357 -277 307 -269T229 -232T191 -161T179 -47Z" />
</g>
</g>
<g transform="translate(10127,0)">
<g transform="scale(1,-1) translate(0,-1638)">
<path stroke="none" fill="#ffffff" d="M971 1085L825 1087Q793 1087 774 1075T756 1035Q756 1020 766 1009T796 998L950 994Q1010 992 1052 950T1096 834T1092 713T1052 630T963 597L801 598Q780 598 765 585T754 505L752 360L757 -79Q758 -180 752 -205T714 -269T555 -305Q512 -305 462 -295T380 -252T350 -81L352 465Q352 544 345 563T323 594L195 609Q162 615 131 648T102 809Q103 859 110 897T142 962T209 998L290 1000Q323 1001 336 1014T349 1049V1163Q349 1254 363 1317T407 1416T498 1476T635 1502L903 1501Q977 1500 1024 1474T1090 1403T1106 1291Q1103 1231 1092 1184T1054 1110T971 1085ZM411 1325L398 1257Q389 1219 401 1192T431 1169Q441 1171 451 1203L465 1254Q474 1288 486 1290T510 1283Q517 1276 531 1240T563 1207Q574 1208 586 1230T607 1275T629 1305T657 1304Q664 1299 672 1279L683 1250L698 1200Q714 1150 732 1152Q745 1153 755 1171T777 1220L790 1254Q798 1277 812 1288T843 1287Q846 1284 856 1269T867 1251L880 1220Q888 1208 899 1208T924 1220L952 1251Q963 1262 971 1261Q976 1260 985 1251L1012 1217Q1028 1198 1039 1200Q1050 1201 1057 1228T1066 1288T1059 1355Q1048 1394 1027 1416T974 1450T887 1463Q856 1463 758 1462T625 1459T558 1450T496 1428T443 1387T411 1325Z" />
</g>
</g>
<g transform="translate(11345,0)">
<g transform="scale(1,-1) translate(0,-1638)">
<path stroke="none" fill="#ffffff" d="M551 281Q507 281 501 271T492 245T507 197Q527 156 573 108T757 59T971 118L1074 198Q1099 217 1163 217T1267 194T1342 129T1382 35T1308 -97Q1225 -181 1098 -229T774 -278Q671 -279 588 -262T416 -197T270 -99T173 38T120 180T103 296T102 436Q108 537 145 651T277 856T465 988T638 1040T784 1051Q886 1049 963 1030T1097 985T1207 918T1305 819T1398 654T1440 445Q1434 368 1393 325T1265 281H551ZM911 545Q948 542 967 547T993 565T982 609Q963 637 935 653T862 686T757 704Q707 704 651 689T570 652T532 611T518 576T528 553T607 545H911ZM475 690Q480 689 493 702T525 742T557 786T586 808T628 800Q638 794 661 774T698 757Q709 759 724 783T754 825T784 844T813 835L837 805Q852 786 870 785Q881 784 895 792L939 827Q960 841 978 838Q1001 833 1019 783T1056 700T1090 670Q1100 671 1109 684T1135 726T1163 757T1194 747Q1210 735 1228 709T1270 651T1312 618T1338 641T1323 704L1296 754Q1282 775 1260 802T1206 859T1139 912T1045 958T925 992T809 1007Q724 1010 659 1000T561 979T481 947T403 907T334 852T270 785T226 717L198 663Q174 620 178 593T197 565T229 582Q236 590 253 614T297 670T352 730T400 754Q409 751 438 721T475 690Z" />
</g>
</g>
</g>
</svg>