<?xml version="1.0" encoding="utf-8"?>
<!DOCTYPE svg PUBLIC "-//W3C//DTD SVG 1.1//EN" "http://www.w3.org/Graphics/SVG/1.1/DTD/svg11.dtd">
<svg version="1.1" xmlns="http://www.w3.org/2000/svg" width="1540.5" height="256" viewBox="0 0 1540.5 256">
<g transform="scale(0.25,0.25)">
<g>
<rect fill="#89bcfa" width="6162" height="1024" />
</g>
<g transform="translate(0,0)">
<g transform="scale(1,-1) translate(0,-820)">
<path stroke="none" fill="#ffffff" d="M728 150Q728 40 631 -16Q553 -61 434 -61Q247 -61 121 28Q31 92 31 140Q31 170 62 170Q79 170 104 141Q166 72 241 41Q334 1 458 1Q560 1 610 48Q660 95 660 146Q660 252 504 294Q358 321 212 348Q55 386 55 481Q55 596 163 652Q248 696 374 696Q510 696 602 648Q709 593 709 538Q709 509 681 509Q659 509 626 546Q585 591 508 614Q443 634 372 634Q273 634 209 609Q117 573 117 490Q117 461 142 439Q183 405 376 383Q582 358 659 289Q728 227 728 150V150V150V151V150Z" />
</g>
</g>
<g transform="translate(741,0)">
<g transform="scale(1,-1) translate(0,-820)">
<path stroke="none" fill="#ffffff" d="M833 282Q833 202 812 90Q784 -61 741 -61Q715 -61 715 -39Q715 -29 730 18Q770 141 770 277Q770 454 635 454Q568 454 525 425Q503 408 473 368Q451 339 434 339Q407 339 396 367Q380 412 373 422Q347 450 283 450Q184 450 118 359Q113 300 113 241Q113 94 141 19Q153 -10 153 -24Q153 -44 126 -44Q51 -44 51 295Q51 448 65 495Q74 529 96 529Q126 529 126 491Q126 483 125 469Q123 451 123 446Q200 514 294 514Q387 514 450 446Q534 522 645 522Q740 522 791 447Q833 383 833 282V282V282V283V282Z" />
</g>
</g>
<g transform="translate(1604,0)">
<g transform="scale(1,-1) translate(0,-820)">
<path stroke="none" fill="#ffffff" d="M725 -26Q725 -61 695 -61Q667 -61 653 13Q651 30 645 106Q588 28 490 -17Q398 -61 298 -61Q186 -61 109 15Q31 91 31 203Q31 359 142 447Q245 529 406 529Q473 529 549 497Q643 459 643 402Q643 375 617 375Q607 375 574 398Q532 429 505 442Q456 466 406 466Q272 466 186 401Q92 330 92 199Q92 109 156 55Q216 4 308 4Q436 4 537 103Q624 189 639 301Q646 350 673 350Q707 350 707 316Q707 308 705 293Q702 277 702 269Q702 117 716 28Q725 -33 725 -26V-26V-26V-25V-26Z" />
</g>
</g>
<g transform="translate(2342,0)">
<g transform="scale(1,-1) translate(0,-820)">
<path stroke="none" fill="#ffffff" d="M618 485Q618 456 575 453Q415 443 327 397Q250 356 166 251Q170 230 210 45Q222 -11 222 -26Q222 -40 212 -50Q203 -61 188 -61Q173 -61 157 -40Q140 -20 95 214Q51 442 51 492Q51 529 81 529Q116 529 125 479Q133 430 151 331Q324 522 555 522Q618 522 618 485V485V485V486V485Z" />
</g>
</g>
<g transform="translate(2961,0)">
<g transform="scale(1,-1) translate(0,-820)">
<path stroke="none" fill="#ffffff" d="M687 433Q687 405 653 405Q662 405 587 413Q508 422 317 424Q254 264 254 163Q254 2 406 2Q463 2 526 32Q590 61 597 61Q628 61 628 27Q628 5 575 -21Q494 -61 409 -61Q302 -61 246 0Q189 60 189 167Q189 263 246 425L114 422Q105 422 87 420Q70 418 60 418Q26 418 26 446Q26 475 83 481Q144 487 269 489Q290 533 310 577Q346 653 373 653Q403 653 407 620Q371 552 343 489Q518 485 620 476Q687 470 687 433V433V433V434V433Z" />
</g>
</g>
<g transform="translate(3647,0)">
<g transform="scale(1,-1) translate(0,-820)">
<path stroke="none" fill="#ffffff" d="M805 75Q805 29 608 -25Q479 -61 378 -61Q204 -61 125 34Q51 121 51 298Q51 495 105 632Q131 696 163 696Q195 696 197 665Q155 547 139 482Q118 389 118 291Q118 2 370 2Q501 2 720 89Q761 105 774 105Q805 105 805 75V75V75V76V75Z" />
</g>
</g>
<g transform="translate(4458,0)">
<g transform="scale(1,-1) translate(0,-820)">
<path stroke="none" fill="#ffffff" d="M250 578Q250 554 222 554Q215 554 187 566Q161 578 90 590Q51 596 51 625Q51 653 87 653Q133 653 184 636Q250 614 250 578V578V578ZM205 -25Q205 -61 172 -61Q140 -61 134 16Q115 246 115 468Q115 518 146 518Q177 518 179 474Q179 435 180 357Q183 206 193 96Q194 87 200 36Q205 -2 205 -25V-25V-25V-24V-25Z" />
</g>
</g>
<g transform="translate(4752,0)">
<g transform="scale(1,-1) translate(0,-820)">
<path stroke="none" fill="#ffffff" d="M683 424Q683 393 649 393Q647 393 545 400Q478 405 307 408Q294 349 294 271Q294 114 321 21Q330 -11 330 -31Q330 -61 308 -61Q256 -61 236 90Q224 172 224 278Q224 356 236 409H73Q26 409 26 438Q26 471 79 471Q108 471 166 471Q223 470 252 470Q316 653 534 653Q583 653 583 622Q583 595 541 593Q455 588 412 567Q356 539 327 470Q422 470 611 461Q683 454 683 424V424V424V425V424Z" />
</g>
</g>
<g transform="translate(5444,0)">
<g transform="scale(1,-1) translate(0,-820)">
<path stroke="none" fill="#ffffff" d="M705 263Q705 192 662 153Q620 115 549 115Q528 115 401 138Q301 155 97 195Q103 100 207 48Q292 5 397 5Q445 5 445 -29Q445 -61 386 -61Q246 -61 146 5Q31 82 31 215Q31 358 131 446Q226 529 373 529Q522 529 613 448Q705 367 705 263V263V263ZM642 255Q642 350 559 410Q484 465 385 465Q281 465 203 412Q119 356 101 257L409 199Q534 177 544 177Q585 177 611 194Q642 215 642 255V255V255V256V255Z" />
</g>
</g>
</g>
</svg>