<svg id="kity_svg_2" xmlns="http://www.w3.org/2000/svg" xmlns:xlink="http://www.w3.org/1999/xlink" width="653" height="460" contenteditable="true" class="loading-target" style="font-family: Arial, &quot;Microsoft Yahei&quot;,  &quot;Heiti SC&quot;; background: #fbfbfb" viewBox="569 41 653 460"><defs id="kity_defs_3"><linearGradient id="kity_linearGradient_8" x1="0" y1="0" x2="0" y2="1"><stop id="kity_stop_9" offset="0" stop-color="rgb(255, 255, 255)"></stop><stop id="kity_stop_10" offset="1" stop-color="rgb(204, 204, 204)"></stop></linearGradient><marker id="kity_marker_0" orient="auto" refX="6" refY="0" viewBox="-7 -7 14 14" markerWidth="7" markerHeight="7" markerUnits="userSpaceOnUse"><path id="kity_path_1" fill="rgb(115, 161, 191)" stroke="none" d="M6,0A6,6,0,1,1,-6,0A6,6,0,1,1,6,0"></path></marker></defs><g id="kity_g_4" transform="translate(0.5, 0.5)"><g id="minder_1" text-rendering="optimize-speed" transform="translate( 613 284 ) matrix( 1 0 0 1 0 0 )"><g id="minder_connect_group_1"><path id="kity_path_52" fill="none" stroke="rgb(115, 161, 191)" stroke-width="1" d="M64 0A206,160,0,0,1,270 -160" transform="translate( 0 0 )" marker-end="url(#kity_marker_0)"></path><path id="kity_path_54" fill="none" stroke="rgb(115, 161, 191)" stroke-width="1" d="M64 0A206,20,0,0,1,270 -20" transform="translate( 0 0 )" marker-end="url(#kity_marker_0)"></path><path id="kity_path_56" fill="none" stroke="rgb(115, 161, 191)" stroke-width="1" d="M64 0A206,70,0,0,0,270 70" transform="translate( 0 0 )" marker-end="url(#kity_marker_0)"></path><path id="kity_path_58" fill="none" stroke="rgb(115, 161, 191)" stroke-width="1" d="M64 0A206,160,0,0,0,270 160" transform="translate( 0 0 )" marker-end="url(#kity_marker_0)"></path><path id="kity_path_99" fill="none" stroke="rgb(115, 161, 191)" stroke-width="1" d="M382,-160C402,-160,402,-212,422,-212" transform="translate( 0 0 )"></path><path id="kity_path_119" fill="none" stroke="rgb(115, 161, 191)" stroke-width="1" d="M382,-160C402,-160,402,-160,422,-160" transform="translate( 0 0 )"></path><path id="kity_path_141" fill="none" stroke="rgb(115, 161, 191)" stroke-width="1" d="M382,-160C402,-160,402,-108,422,-108" transform="translate( 0 0 )"></path><path id="kity_path_213" fill="none" stroke="rgb(115, 161, 191)" stroke-width="1" d="M368,-20C388,-20,388,-46,408,-46" transform="translate( 0 0 )"></path><path id="kity_path_295" fill="none" stroke="rgb(115, 161, 191)" stroke-width="1" d="M368,-20C388,-20,388,6,408,6" transform="translate( 0 0 )"></path><path id="kity_path_332" fill="none" stroke="rgb(115, 161, 191)" stroke-width="1" d="M368,70C388,70,388,70,408,70" transform="translate( 0 0 )"></path><path id="kity_path_352" fill="none" stroke="rgb(115, 161, 191)" stroke-width="1" d="M396,160C416,160,416,134,436,134" transform="translate( 0 0 )"></path><path id="kity_path_399" fill="none" stroke="rgb(115, 161, 191)" stroke-width="1" d="M396,160C416,160,416,186,436,186" transform="translate( 0 0 )"></path></g><g id="minder_node_1" transform="matrix( 1 0 0 1 0 0 )"><path id="kity_path_446" fill="rgba(0, 0, 0, .25)" stroke="none" d="M-16,-22h232a5,5,0,0,1,5,5v44a5,5,0,0,1,-5,5h-232a5,5,0,0,1,-5,-5v-44a5,5,0,0,1,5,-5z" display="none"></path><path id="node_outline_1" fill="rgb(115, 161, 191)" stroke="rgb(115, 161, 191)" d="M-19,-20h166a5,5,0,0,1,5,5v30a5,5,0,0,1,-5,5h-166a5,5,0,0,1,-5,-5v-30a5,5,0,0,1,5,-5z" stroke-width="3"></path><g id="node_text_1" transform="translate( 0 -2.4 )" fill="white"><text id="kity_text_19" text-rendering="inherit" dominant-baseline="text-before-edge" dy="0" font-size="16" y="-8">智能家居原型系统</text></g></g><g id="kity_g_11"><path id="kity_path_12" fill="none" stroke="none" d="M0,0h0v0h0z"></path></g><g id="kity_g_13"><path id="kity_path_14" fill="none" stroke="none" d="M0,0h0v0h0z"></path><path id="kity_path_15" fill="none" stroke="none"></path></g><g id="minder_node_12" transform="matrix( 1 0 0 1 292 -160 )"><path id="kity_path_442" fill="rgba(0, 0, 0, .25)" stroke="none" d="M-11,-9h110a5,5,0,0,1,5,5v18a5,5,0,0,1,-5,5h-110a5,5,0,0,1,-5,-5v-18a5,5,0,0,1,5,-5z" display="none"></path><g id="node_expander_3" transform="translate( 97 0 )" style="cursor: pointer;"><path id="kity_path_72" fill="white" stroke="gray" d="M6,0A6,6,0,1,1,-6,0A6,6,0,1,1,6,0"></path><path id="kity_path_73" fill="none" stroke="gray" d="M-4.5,0L4.5,0"></path></g><path id="node_outline_4" fill="rgb(238, 243, 246)" stroke="rgb(115, 161, 191)" d="M-17,-13h104a3,3,0,0,1,3,3v20a3,3,0,0,1,-3,3h-104a3,3,0,0,1,-3,-3v-20a3,3,0,0,1,3,-3z" stroke-width="1"></path><g id="node_text_4" transform="translate( 0 -2.1 )" fill="black" style="cursor: default;"><text id="kity_text_60" text-rendering="inherit" dominant-baseline="text-before-edge" dy="0" font-size="14" y="-7">遥控客户端</text></g></g><g id="minder_node_13" transform="matrix( 1 0 0 1 292 -20 )"><path id="kity_path_443" fill="rgba(0, 0, 0, .25)" stroke="none" d="M-11,-9h94a5,5,0,0,1,5,5v18a5,5,0,0,1,-5,5h-94a5,5,0,0,1,-5,-5v-18a5,5,0,0,1,5,-5z" display="none"></path><g id="node_expander_4" transform="translate( 83 0 )" style="cursor: pointer;"><path id="kity_path_75" fill="white" stroke="gray" d="M6,0A6,6,0,1,1,-6,0A6,6,0,1,1,6,0"></path><path id="kity_path_76" fill="none" stroke="gray" d="M-4.5,0L4.5,0"></path></g><path id="node_outline_5" fill="rgb(238, 243, 246)" stroke="rgb(115, 161, 191)" d="M-17,-13h90a3,3,0,0,1,3,3v20a3,3,0,0,1,-3,3h-90a3,3,0,0,1,-3,-3v-20a3,3,0,0,1,3,-3z" stroke-width="1"></path><g id="node_text_5" transform="translate( 0 -2.1 )" fill="black" style="cursor: default;"><text id="kity_text_62" text-rendering="inherit" dominant-baseline="text-before-edge" dy="0" font-size="14" y="-7">服务器端</text></g></g><g id="minder_node_14" transform="matrix( 1 0 0 1 292 70 )"><path id="kity_path_444" fill="rgba(0, 0, 0, .25)" stroke="none" d="M-11,-9h94a5,5,0,0,1,5,5v18a5,5,0,0,1,-5,5h-94a5,5,0,0,1,-5,-5v-18a5,5,0,0,1,5,-5z" display="none"></path><g id="node_expander_5" transform="translate( 83 0 )" style="cursor: pointer;"><path id="kity_path_78" fill="white" stroke="gray" d="M6,0A6,6,0,1,1,-6,0A6,6,0,1,1,6,0"></path><path id="kity_path_79" fill="none" stroke="gray" d="M-4.5,0L4.5,0"></path></g><path id="node_outline_6" fill="rgb(238, 243, 246)" stroke="rgb(115, 161, 191)" d="M-17,-13h90a3,3,0,0,1,3,3v20a3,3,0,0,1,-3,3h-90a3,3,0,0,1,-3,-3v-20a3,3,0,0,1,3,-3z" stroke-width="1"></path><g id="node_text_6" transform="translate( 0 -2.1 )" fill="black" style="cursor: default;"><text id="kity_text_64" text-rendering="inherit" dominant-baseline="text-before-edge" dy="0" font-size="14" y="-7">后台系统</text></g></g><g id="minder_node_15" transform="matrix( 1 0 0 1 292 160 )"><path id="kity_path_445" fill="rgba(0, 0, 0, .25)" stroke="none" d="M-11,-9h126a5,5,0,0,1,5,5v18a5,5,0,0,1,-5,5h-126a5,5,0,0,1,-5,-5v-18a5,5,0,0,1,5,-5z" display="none"></path><g id="node_expander_6" transform="translate( 111 0 )" style="cursor: pointer;"><path id="kity_path_81" fill="white" stroke="gray" d="M6,0A6,6,0,1,1,-6,0A6,6,0,1,1,6,0"></path><path id="kity_path_82" fill="none" stroke="gray" d="M-4.5,0L4.5,0"></path></g><path id="node_outline_7" fill="rgb(238, 243, 246)" stroke="rgb(115, 161, 191)" d="M-17,-13h118a3,3,0,0,1,3,3v20a3,3,0,0,1,-3,3h-118a3,3,0,0,1,-3,-3v-20a3,3,0,0,1,3,-3z" stroke-width="1"></path><g id="node_text_7" transform="translate( 0 -2.1 )" fill="black" style="cursor: default;"><text id="kity_text_66" text-rendering="inherit" dominant-baseline="text-before-edge" dy="0" font-size="14" y="-7">主控制客户端</text></g></g><g id="minder_node_44" transform="matrix( 1 0 0 1 432 -160 )"><g id="node_expander_8" transform="translate( 15 15 )" display="none" style="cursor: pointer;"><path id="kity_path_124" fill="white" stroke="gray" d="M6,0A6,6,0,1,1,-6,0A6,6,0,1,1,6,0"></path><path id="kity_path_125" fill="none" stroke="gray"></path></g><path id="node_outline_9" fill="transparent" stroke="none" d="M-5,-11h157a5,5,0,0,1,5,5v12a5,5,0,0,1,-5,5h-157a5,5,0,0,1,-5,-5v-12a5,5,0,0,1,5,-5z" stroke-width="3"></path><g id="node_text_9" transform="translate( 0 -1.7999999999999998 )" fill="black" style="cursor: default;"><text id="kity_text_121" text-rendering="inherit" dominant-baseline="text-before-edge" dy="0" font-size="12" y="-6">便签提醒模块（ToDoList）</text></g></g><g id="minder_node_124" transform="matrix( 1 0 0 1 418 -46 )"><g id="node_expander_10" transform="translate( 15 15 )" display="none" style="cursor: pointer;"><path id="kity_path_218" fill="white" stroke="gray" d="M6,0A6,6,0,1,1,-6,0A6,6,0,1,1,6,0"></path><path id="kity_path_219" fill="none" stroke="gray"></path></g><path id="node_outline_11" fill="transparent" stroke="none" d="M-5,-11h124a5,5,0,0,1,5,5v12a5,5,0,0,1,-5,5h-124a5,5,0,0,1,-5,-5v-12a5,5,0,0,1,5,-5z" stroke-width="3"></path><g id="node_text_11" transform="translate( 0 -1.7999999999999998 )" fill="black" style="cursor: default;"><text id="kity_text_215" text-rendering="inherit" dominant-baseline="text-before-edge" dy="0" font-size="12" y="-6">WebSocket通信模块</text></g></g><g id="minder_node_31" transform="matrix( 1 0 0 1 432 -212 )"><g id="node_expander_7" transform="translate( 15 15 )" display="none" style="cursor: pointer;"><path id="kity_path_104" fill="white" stroke="gray" d="M6,0A6,6,0,1,1,-6,0A6,6,0,1,1,6,0"></path><path id="kity_path_105" fill="none" stroke="gray"></path></g><path id="node_outline_8" fill="transparent" stroke="none" d="M-5,-11h111a5,5,0,0,1,5,5v12a5,5,0,0,1,-5,5h-111a5,5,0,0,1,-5,-5v-12a5,5,0,0,1,5,-5z" stroke-width="3"></path><g id="node_text_8" transform="translate( 0 -1.7999999999999998 )" fill="black" style="cursor: default;"><text id="kity_text_101" text-rendering="inherit" dominant-baseline="text-before-edge" dy="0" font-size="12" y="-6">用户登录/注册模块</text></g><path id="_kity_selection" fill="rgb(0, 61, 102)" stroke="none" opacity="0.5" transform="translate( -0.5 -1.5 )" d="M12,-5h2v14h-2v-14z" style="cursor: text; display: none;"></path></g><g id="minder_node_192" transform="matrix( 1 0 0 1 418 6 )"><g id="node_expander_12" transform="translate( 15 15 )" display="none" style="cursor: pointer;"><path id="kity_path_300" fill="white" stroke="gray" d="M6,0A6,6,0,1,1,-6,0A6,6,0,1,1,6,0"></path><path id="kity_path_301" fill="none" stroke="gray"></path></g><path id="node_outline_13" fill="transparent" stroke="none" d="M-5,-11h91a5,5,0,0,1,5,5v12a5,5,0,0,1,-5,5h-91a5,5,0,0,1,-5,-5v-12a5,5,0,0,1,5,-5z" stroke-width="3"></path><g id="node_text_13" transform="translate( 0 -1.7999999999999998 )" fill="black" style="cursor: default;"><text id="kity_text_297" text-rendering="inherit" dominant-baseline="text-before-edge" dy="0" font-size="12" y="-6">SSH框架CRUD</text></g></g><g id="minder_node_59" transform="matrix( 1 0 0 1 432 -108 )"><g id="node_expander_9" transform="translate( 15 15 )" display="none" style="cursor: pointer;"><path id="kity_path_146" fill="white" stroke="gray" d="M6,0A6,6,0,1,1,-6,0A6,6,0,1,1,6,0"></path><path id="kity_path_147" fill="none" stroke="gray"></path></g><path id="node_outline_10" fill="transparent" stroke="none" d="M-5,-11h118a5,5,0,0,1,5,5v12a5,5,0,0,1,-5,5h-118a5,5,0,0,1,-5,-5v-12a5,5,0,0,1,5,-5z" stroke-width="3"></path><g id="node_text_10" transform="translate( 0 -1.7999999999999998 )" fill="black" style="cursor: default;"><text id="kity_text_143" text-rendering="inherit" dominant-baseline="text-before-edge" dy="0" font-size="12" y="-6">音乐播放器控制模块</text></g></g><g id="minder_node_228" transform="matrix( 1 0 0 1 446 134 )"><g id="node_expander_15" transform="translate( 15 15 )" display="none" style="cursor: pointer;"><path id="kity_path_357" fill="white" stroke="gray" d="M6,0A6,6,0,1,1,-6,0A6,6,0,1,1,6,0"></path><path id="kity_path_358" fill="none" stroke="gray"></path></g><path id="node_outline_16" fill="transparent" stroke="none" d="M-5,-11h70a5,5,0,0,1,5,5v12a5,5,0,0,1,-5,5h-70a5,5,0,0,1,-5,-5v-12a5,5,0,0,1,5,-5z" stroke-width="3"></path><g id="node_text_16" transform="translate( 0 -1.7999999999999998 )" fill="black" style="cursor: default;"><text id="kity_text_354" text-rendering="inherit" dominant-baseline="text-before-edge" dy="0" font-size="12" y="-6">播放器模块</text></g></g><g id="minder_node_215" transform="matrix( 1 0 0 1 418 70 )"><g id="node_expander_14" transform="translate( 15 15 )" display="none" style="cursor: pointer;"><path id="kity_path_337" fill="white" stroke="gray" d="M6,0A6,6,0,1,1,-6,0A6,6,0,1,1,6,0"></path><path id="kity_path_338" fill="none" stroke="gray"></path></g><path id="node_outline_15" fill="transparent" stroke="none" d="M-5,-11h148a5,5,0,0,1,5,5v12a5,5,0,0,1,-5,5h-148a5,5,0,0,1,-5,-5v-12a5,5,0,0,1,5,-5z" stroke-width="3"></path><g id="node_text_15" transform="translate( 0 -1.7999999999999998 )" fill="black" style="cursor: default;"><text id="kity_text_334" text-rendering="inherit" dominant-baseline="text-before-edge" dy="0" font-size="12" y="-6">后台管理模块（Django）</text></g></g><g id="minder_node_268" transform="matrix( 1 0 0 1 446 186 )"><g id="node_expander_16" transform="translate( 15 15 )" display="none" style="cursor: pointer;"><path id="kity_path_404" fill="white" stroke="gray" d="M6,0A6,6,0,1,1,-6,0A6,6,0,1,1,6,0"></path><path id="kity_path_405" fill="none" stroke="gray"></path></g><path id="node_outline_17" fill="transparent" stroke="none" d="M-5,-11h82a5,5,0,0,1,5,5v12a5,5,0,0,1,-5,5h-82a5,5,0,0,1,-5,-5v-12a5,5,0,0,1,5,-5z" stroke-width="3"></path><g id="node_text_17" transform="translate( 0 -1.7999999999999998 )" fill="black" style="cursor: default;"><text id="kity_text_401" text-rendering="inherit" dominant-baseline="text-before-edge" dy="0" font-size="12" y="-6">便签展示模块</text></g></g></g></g></svg>